<svg xmlns="http://www.w3.org/2000/svg" fill="none" viewBox="0 0 84 83">
  <path fill="#A3CEFA" d="M60.672 73.876c-2.499-.287-2.226 2.088-2.743 3.674-1.517 4.632-7.364 6.338-11.285 3.397-4.021-3.017-2.492-7.83-2.77-12.143h2.851c2.457 0 4.965-3.456 4.993-5.76.03-2.304-2.473-5.914-4.993-5.914h-2.852v-9.727h16.623c.337 0 1.149-.912 1.238-1.305.397-1.758-.98-6.517 2.11-6.483 3.254.036 1.054 5.128 2.258 6.915.132.195.928.873 1.083.873H83.61c-.397 4.125-3.27 8.203-6.88 10.218-1.11.62-3.67 1.26-4.048 2.416-.147.453-1.228 4.905 1.671 6.528 4.292 2.403 1.811 7.779.57 8.972-1.114 1.072-7.064 3.667-9.014-.377-1.211-2.512-5.075-1.269-5.238-1.287v.002Z"/>
  <path fill="#DBF22E" d="M39.74 22.112h-2.852c-2.52 0-4.912 3.42-4.94 5.77-.03 2.351 2.367 5.901 4.94 5.901h2.852v9.727H23.314c-.486 0-1.32.796-1.435 1.305-.381 1.69.93 6.382-1.916 6.492-3.488.132-1.254-5.142-2.452-6.923-.131-.196-.928-.874-1.083-.874H.002c.374-3.852 2.83-7.534 6.037-9.693 1.175-.79 4.423-1.823 4.83-2.809.476-1.154-.496-2.834-.612-4.158-.475-5.524 4.066-10.455 9.717-10.397 1.784.018 4.134 1.599 5.114-.567.336-.744.302-1.587.546-2.377 1.483-4.765 7.48-6.583 11.446-3.457 3.926 3.095 2.36 7.73 2.66 12.057v.003Z"/>
  <path fill="#0079F2" d="M13.971 47.403v3.21c0 1.575 2.481 3.807 3.94 4.275 4.927 1.573 8.62-2.799 7.863-7.485h13.968V58.98c0 .593.728 1.763 1.367 1.955 1.837.557 7.66-1.18 6.413 2.822-.768 2.455-6.145-.068-7.362 2.057-1.424 2.497.576 9.173-1.067 12.564-2.778 5.74-11.435 5.201-13.409-.83-.275-.84-.252-1.755-.599-2.52-.956-2.117-3.245-.619-4.914-.572-5.803.161-10.505-4.905-9.916-10.59.134-1.297 1.109-2.757.612-3.963-.407-.986-3.655-2.018-4.83-2.809C2.83 54.937.376 51.252 0 47.4h13.968l.003.003Z"/>
  <path fill="#EAEAEC" d="m83.721 44.121-13.175-4.483c.634-2.128 1.42-3.52.642-5.787-1.509-4.4-7.567-5.347-10.37-1.586-.76 1.02-.9 2.265-1.601 3.29l-13.07-4.666 3.997-10.928c1.567-3.937-8.32-2.856-5.855-6.764 1.89-2.999 6.476 2.86 8.497-.546 1.753-2.95 2.026-8.008 4.665-10.564C61.306-1.648 67.926-.18 69.503 4.97c.602 1.966-.123 3.355.047 5.006.213 2.042 2.886 1.66 4.49 2.18 5.923 1.921 8.18 8.803 5.043 14.046-.558.93-1.617 1.57-1.456 2.819.107.84 3.056 3.328 3.813 4.413 2.155 3.084 2.825 7.011 2.281 10.683v.003Z"/>
</svg>