<svg xmlns="http://www.w3.org/2000/svg" fill="none" viewBox="0 0 84 83">
  <path fill="#FFDABB" d="M83.899 82.403H0c.732-11.71 8.753-21.311 18.912-26.764 13.827-7.419 32.248-7.421 46.077 0 10.159 5.453 18.178 15.053 18.912 26.764H83.9Zm-64.422-11.77H16.48c.63 9.777 17.347 9.78 17.978 0H31.46c-.69 5.862-11.298 5.862-11.985 0h.002Zm32.96 0h-2.998c.63 9.777 17.347 9.78 17.978 0h-2.998c-.69 5.862-11.298 5.862-11.985 0h.002Z"/>
  <path fill="#DBF22E" d="M72.837 11.052c.573.751.859 1.684.859 2.801 0 1.117-.354 2.091-1.065 2.856-.708.765-1.618 1.147-2.725 1.147a5.507 5.507 0 0 1-1.593-.214 30.004 30.004 0 0 1-1.546-.629l-.011-1.845-.01-1.753.021-1.946c.779-.571 1.33-.942 1.65-1.115.656-.343 1.299-.516 1.925-.516 1.046 0 1.879.406 2.495 1.214Z"/>
  <path fill="#DBF22E" d="M82.641 13.314c-.04-.753 1.093-1.686 1.213-2.782.136-1.228-.49-2.836-1.379-3.7-.396-.382-1.283-.714-1.52-.988-.422-.49-.401-1.718-.654-2.393-.903-2.426-4.57-3.596-6.98-3.437-1.154.074-2.801.878-3.72.853-.847-.023-2.233-.7-3.263-.807-2.451-.253-6.246.795-7.252 3.26-.329.808-.181 1.727-.577 2.377-.631 1.039-2.07 1.078-2.79 3.146-.916 2.629.892 3.03.97 4.529.053 1.039-1.455 2.008-1.208 3.969.286 2.291 2.12 2.404 2.554 4.482.23 1.101-.066 1.453.77 2.555 2.127 2.812 7.669 3.095 10.72 1.884.406-.162.561-.66.974-.68.49-.025 2.317.797 3.216.89 2.35.236 4.831-.427 5.73-2.79.262-.689.222-1.912.51-2.396.193-.325 1.43-.67 1.873-.965 1.341-.903 2.287-2.718 1.984-4.319-.171-.921-1.128-1.925-1.17-2.688Zm-8.544 4.893c-1.121 1.19-2.52 1.787-4.192 1.787-1.168 0-2.228-.226-3.182-.675-.244.36-.542.54-.894.54-.29 0-.537-.1-.739-.298a1.004 1.004 0 0 1-.303-.749c0-.193.01-.483.029-.866.018-.382.028-.67.028-.866 0-.794-.021-1.983-.063-3.57a146.635 146.635 0 0 1-.064-3.57c0-.549.005-1.585.012-3.11.007-1.527.012-2.566.012-3.121 0-.452.096-.855.286-1.216.253-.456.6-.687 1.041-.687.575 0 .861.327.861.98 0 .105-.019.26-.059.46a2.758 2.758 0 0 0-.056.463l-.035 2.462-.024 2.868c.666-.442 1.297-.774 1.898-.995.598-.221 1.161-.332 1.689-.332 1.642 0 2.974.62 3.996 1.857.962 1.16 1.443 2.589 1.443 4.284 0 1.696-.56 3.16-1.684 4.354Z"/>
  <path fill="#0079F2" d="M13.398 12.448c0 .988.122 2.479.366 4.464-.497.428-.882.712-1.156.855-.512.262-1.136.393-1.867.393-.887 0-1.55-.306-1.994-.92-.444-.616-.664-1.54-.664-2.767 0-1.228.43-2.331 1.288-3.28.858-.95 1.88-1.422 3.063-1.422.122 0 .286.033.488.1.201.069.443.172.727.315-.084.428-.148.832-.19 1.21-.042.377-.061.73-.061 1.052Z"/>
  <path fill="#0079F2" d="M25.655 6.906c-.455-.504-1.468-.967-1.731-1.61-.204-.497-.115-1.036-.267-1.575-.76-2.677-4.675-4.004-7.222-3.663-.943.124-2.186.836-3.045.839-.666 0-1.445-.496-2.115-.65C8.715-.345 4.95.507 3.67 2.97c-.469.903-.365 2.01-.783 2.725-.364.624-1.086.78-1.513 1.181C.18 8.005-.277 9.873.286 11.407c.241.666 1.008 1.382.969 2.091-.054.984-1.448 1.535-1.208 3.474.265 2.156 1.529 2.313 2.158 3.586.333.678.159 1.383.311 2.085.79 3.623 5.69 4.303 8.766 3.803.842-.136 2.308-.813 2.868-.87.577-.058 2.214.76 3.033.87 1.405.187 3.417-.115 4.473-1.122 1.433-1.37.84-3.245 1.48-4.157.237-.337 1.266-.675 1.754-1.035 1.433-1.055 2.402-2.83 1.898-4.593-.2-.698-1.044-1.653-1.08-2.225-.04-.684 1.09-1.882 1.22-2.778.167-1.14-.509-2.782-1.273-3.63Zm-9.131 13.065a1.072 1.072 0 0 1-.746.293c-.146 0-.408-.164-.79-.496-.343-.306-.599-.58-.768-.82-.731.39-1.379.684-1.934.883-.559.198-1.023.299-1.398.299-1.788 0-3.09-.495-3.906-1.486-.771-.93-1.156-2.354-1.156-4.272 0-1.816.636-3.368 1.907-4.658 1.271-1.29 2.789-1.935 4.553-1.935.663 0 1.407.17 2.232.507 1.04.42 1.558.926 1.558 1.518a.752.752 0 0 1-.23.541c-.075.284-.134.753-.176 1.405a44.791 44.791 0 0 0-.075 2.509c-.007.928.056 1.663.195 2.204.077.33.316.988.722 1.979.052.136.14.334.263.596l.068.191c0 .3-.106.549-.32.742Zm.842 15.391c4.044-.714 4.919 5.146 1.224 5.8-4.043.715-4.918-5.145-1.224-5.8Z"/>
  <path fill="#DBF22E" d="M65.308 35.362c4.044-.714 4.919 5.146 1.224 5.8-4.043.715-4.918-5.145-1.224-5.8Z"/>
  <path fill="#0079F2" d="M31.036 38.3c2.195-.47 2.575 2.5.851 2.87-2.195.47-2.575-2.502-.851-2.87Z"/>
  <path fill="#DBF22E" d="M52.011 38.3c2.196-.47 2.576 2.5.852 2.87-2.196.47-2.576-2.502-.852-2.87Z"/>
</svg>