<svg xmlns="http://www.w3.org/2000/svg" fill="none" viewBox="0 0 81 83">
  <path fill="#DBF22E" d="M22.317 25.374H3.116a3.062 3.062 0 0 1-3.058-3.058v-19.2A3.062 3.062 0 0 1 3.116.058h5.147a.638.638 0 1 1 0 1.275H3.116c-.984 0-1.783.802-1.783 1.783v19.2c0 .984.802 1.783 1.783 1.783h19.2c.985 0 1.783-.802 1.783-1.783v-19.2c0-.984-.802-1.783-1.782-1.783h-5.721a.638.638 0 1 1 0-1.275h5.72a3.062 3.062 0 0 1 3.059 3.058v19.2a3.062 3.062 0 0 1-3.058 3.058Z"/>
  <path fill="#DBF22E" d="M13.036 1.39h-.908a.695.695 0 1 1 0-1.39h.908a.695.695 0 1 1 0 1.39Z"/>
  <path fill="#F1273F" d="M22.316 54.207h-19.2a3.062 3.062 0 0 1-3.06-3.057v-5.148a.638.638 0 1 1 1.276 0v5.148c0 .983.801 1.782 1.782 1.782h19.201c.984 0 1.783-.802 1.783-1.782V31.949c0-.984-.802-1.783-1.783-1.783h-19.2c-.985 0-1.783.802-1.783 1.783v5.72a.638.638 0 1 1-1.276 0v-5.72a3.062 3.062 0 0 1 3.058-3.058h19.201a3.062 3.062 0 0 1 3.058 3.058v19.2a3.062 3.062 0 0 1-3.058 3.058Z"/>
  <path fill="#F1273F" d="M.695 42.832A.695.695 0 0 1 0 42.137v-.908a.695.695 0 1 1 1.39 0v.908a.695.695 0 0 1-.695.695Z"/>
  <path fill="#DBF22E" d="M15.53 20.154c-.283 0-.532-.079-.748-.24-.246-.185-.367-.413-.367-.683-.282-.744-.462-1.348-.534-1.816-.073-.467-.316-1.791-.73-3.972-.312-1.652-.522-2.979-.625-3.98-.546 2.028-1.133 3.743-1.761 5.152-.726 1.628-1.197 2.903-1.41 3.827a.89.89 0 0 1 .11.416c0 .276-.124.504-.367.683a1.223 1.223 0 0 1-.756.249c-.83 0-1.245-.37-1.245-1.115l-.286-1.169-1.005-4.515c-.4-1.525-1.081-3.708-2.047-6.553a1.23 1.23 0 0 1-.063-.368c0-.57.321-.856.968-.856.401 0 .708.218.923.653.11.221.334.856.675 1.907.36 1.111.725 2.45 1.087 4.017l.892 4.075c.656-1.524 1.312-3.38 1.962-5.566.401-1.333.705-2.259.911-2.775.553-1.358 1.09-2.038 1.613-2.038.43 0 .734.219.91.653.222.528.447 1.789.675 3.778.121 1.008.33 2.216.625 3.632l.793 3.622c.823-1.98 1.852-4.655 3.088-8.029.067-.185.222-.765.462-1.743.179-.72.397-1.278.656-1.676.221-.337.51-.507.865-.507.62 0 .932.307.932.923 0 .103-.097.413-.294.923l-.368.996-.507 1.64-2.736 6.653c-.252.732-.686 1.795-1.3 3.189-.221.413-.552.616-.995.616l-.004-.003Z"/>
  <path fill="#0079F2" d="M50.06 24.737H30.857a2.42 2.42 0 0 1-2.42-2.42V3.116a2.42 2.42 0 0 1 2.42-2.42H50.06a2.42 2.42 0 0 1 2.42 2.42v19.2a2.42 2.42 0 0 1-2.42 2.42Zm-4.735-7.835c1.154-1.71 1.734-3.626 1.734-5.751 0-2.126-.513-3.532-1.54-4.48-.983-.907-2.487-1.363-4.506-1.363-2.02 0-3.856.966-5.262 2.894-1.26 1.74-1.89 3.671-1.89 5.797 0 1.746.638 3.17 1.917 4.276 1.205 1.038 2.672 1.558 4.406 1.558 2.101 0 3.817-.978 5.144-2.93h-.003Zm-1.133-8.849c.656.596.987 1.628.987 3.098 0 1.676-.434 3.188-1.3 4.534-.971 1.506-2.2 2.259-3.695 2.259-1.242 0-2.283-.35-3.125-1.05-.877-.745-1.318-1.707-1.318-2.895 0-1.658.483-3.176 1.449-4.552 1.044-1.5 2.32-2.25 3.826-2.25 1.506 0 2.554.285 3.18.856h-.004Z"/>
  <path fill="#A3CEFA" d="M77.69 24.737h-19.2a2.42 2.42 0 0 1-2.421-2.42V3.116a2.42 2.42 0 0 1 2.42-2.42h19.2a2.42 2.42 0 0 1 2.421 2.42v19.2a2.42 2.42 0 0 1-2.42 2.42Zm-4.762-5.651a.93.93 0 0 0 .283-.675.964.964 0 0 0-.24-.625c-.948-1.136-2.375-2.217-4.285-3.243 1.02-.3 1.87-.741 2.554-1.318.847-.72 1.272-1.546 1.272-2.478 0-1.904-1.245-3.517-3.732-4.837-.577-.307-1.287-.514-2.128-.617l-2.22-.176c-.413-.03-.735.115-.969.443a1.499 1.499 0 0 0-.294.923c0 .313.03.778.088 1.391.057.614.088 1.078.088 1.391 0 .559-.061 1.397-.186 2.517-.124 1.118-.185 1.96-.185 2.527 0 .486.025 1.209.07 2.171.046.963.07 1.686.07 2.171 0 .27.088.495.261.677a.877.877 0 0 0 .659.274.878.878 0 0 0 .659-.274.932.932 0 0 0 .261-.677l-.045-1.816-.073-1.806c2.487.695 4.749 2.046 6.784 4.053.203.198.422.295.652.295a.897.897 0 0 0 .66-.285l-.004-.006ZM69.2 8.357c.972.738 1.458 1.534 1.458 2.387 0 .24-.164.531-.489.874a4.037 4.037 0 0 1-.96.747c-.78.42-1.952.626-3.519.626-.091 0-.228 0-.41-.01a13.31 13.31 0 0 0-.4-.008l.194-1.834c.079-.732.118-1.343.118-1.835 0-.288-.021-.658-.064-1.114l-.09-1.114 1.363.109c.977.103 1.91.495 2.802 1.169l-.003.003Z"/>
  <path fill="#0079F2" d="M22.316 82.403h-19.2a2.42 2.42 0 0 1-2.42-2.42V60.782a2.42 2.42 0 0 1 2.42-2.42h19.2a2.42 2.42 0 0 1 2.42 2.42v19.2a2.42 2.42 0 0 1-2.42 2.42Zm-4.761-5.047a.93.93 0 0 0 .282-.674.964.964 0 0 0-.24-.626c-.947-1.136-2.374-2.217-4.284-3.243 1.02-.3 1.87-.74 2.553-1.318.848-.72 1.273-1.546 1.273-2.478 0-1.904-1.245-3.516-3.732-4.837-.577-.307-1.288-.513-2.129-.617l-2.22-.176c-.413-.03-.735.116-.968.444-.198.264-.295.57-.295.923 0 .313.03.777.088 1.39.058.614.088 1.078.088 1.391 0 .559-.06 1.397-.185 2.518C7.66 71.17 7.6 72.01 7.6 72.579c0 .486.024 1.209.07 2.171.045.963.07 1.686.07 2.172 0 .27.087.495.26.677a.877.877 0 0 0 .66.273.877.877 0 0 0 .658-.273.932.932 0 0 0 .262-.677l-.046-1.816-.073-1.807c2.487.695 4.75 2.047 6.784 4.054.204.197.422.294.653.294.252 0 .47-.094.659-.285l-.003-.006Zm-3.73-10.729c.973.738 1.458 1.534 1.458 2.387 0 .24-.163.532-.489.875a4.035 4.035 0 0 1-.96.747c-.78.419-1.952.625-3.518.625-.092 0-.228 0-.41-.009a13.31 13.31 0 0 0-.401-.009l.194-1.834c.079-.732.118-1.342.118-1.834 0-.289-.02-.66-.063-1.115l-.091-1.114 1.363.11c.978.102 1.91.494 2.803 1.168l-.003.003Z"/>
  <path fill="#A3CEFA" d="M50.06 82.403H30.857a2.42 2.42 0 0 1-2.42-2.42V60.782a2.42 2.42 0 0 1 2.42-2.42H50.06a2.42 2.42 0 0 1 2.42 2.42v19.2a2.42 2.42 0 0 1-2.42 2.42Zm-4.735-7.23c1.154-1.71 1.734-3.626 1.734-5.752s-.513-3.532-1.54-4.479c-.983-.908-2.487-1.363-4.506-1.363-2.02 0-3.856.965-5.262 2.893-1.26 1.74-1.89 3.672-1.89 5.797 0 1.746.638 3.17 1.917 4.276 1.205 1.039 2.672 1.558 4.406 1.558 2.101 0 3.817-.978 5.144-2.93h-.003Zm-1.133-8.85c.656.596.987 1.628.987 3.098 0 1.676-.434 3.188-1.3 4.534-.971 1.506-2.2 2.26-3.695 2.26-1.242 0-2.283-.35-3.125-1.052-.877-.744-1.318-1.71-1.318-2.894 0-1.658.483-3.176 1.449-4.552 1.044-1.5 2.32-2.25 3.826-2.25 1.506 0 2.554.286 3.18.857h-.004Z"/>
  <path fill="#DBF22E" d="M77.69 58.359h-19.2a2.42 2.42 0 0 0-2.421 2.42v19.198a2.419 2.419 0 0 0 2.42 2.42h19.2a2.416 2.416 0 0 0 2.418-2.42V60.779a2.418 2.418 0 0 0-2.417-2.42Zm-.878 6.969-.37.996-.507 1.643-2.736 6.653c-.252.732-.687 1.795-1.3 3.191-.222.413-.556.62-.996.62-.282 0-.532-.082-.747-.243-.243-.182-.368-.41-.368-.683-.282-.741-.461-1.348-.534-1.816-.073-.465-.319-1.789-.729-3.972-.313-1.652-.522-2.982-.628-3.981-.544 2.025-1.133 3.744-1.759 5.153-.725 1.628-1.193 2.903-1.409 3.823a.91.91 0 0 1 .113.416c0 .277-.125.504-.37.683-.222.164-.474.25-.757.25-.829 0-1.245-.37-1.245-1.115l-.285-1.172-1.005-4.516c-.401-1.524-1.078-3.71-2.044-6.553a1.244 1.244 0 0 1-.067-.37c0-.571.322-.86.969-.86.4 0 .707.22.923.656.112.219.337.857.674 1.907.361 1.112.723 2.451 1.087 4.018l.893 4.075c.656-1.524 1.312-3.38 1.962-5.57.4-1.332.704-2.258.914-2.775.552-1.357 1.09-2.037 1.612-2.037.431 0 .735.218.914.653.219.528.447 1.788.671 3.777.122 1.008.331 2.22.626 3.632l.792 3.623c.826-1.98 1.853-4.655 3.089-8.03.07-.181.221-.764.461-1.74.18-.716.398-1.278.653-1.678.222-.337.51-.508.866-.508.622 0 .932.307.932.92 0 .104-.097.414-.295.924v.006Z"/>
  <path fill="#F1273F" d="M15.447 47.986c-.953.65-2.32.977-4.102.977-.45 0-.963-.07-1.54-.212-.695-.167-1.217-.38-1.567-.644h-.09a.887.887 0 0 1-.666-.276.933.933 0 0 1-.267-.675c0-.643.03-1.612.088-2.9.058-1.287.088-2.253.088-2.9 0-.72-.015-1.791-.042-3.221a187.142 187.142 0 0 1-.043-3.222c0-.252.128-.517.386-.793s.516-.416.774-.416c.149 0 .638.206 1.476.617.947.461 1.494.716 1.64.765 1.746.595 3.23 1.512 4.46 2.745 1.443 1.457 2.166 3.058 2.166 4.8 0 1.051-.246 2.06-.741 3.025a6.161 6.161 0 0 1-2.023 2.323l.003.007Zm-1.934-9.754c-.625-.413-2.074-1.118-4.342-2.12l.045 2.654.028 2.645-.15 5.032c.043.018.107.058.195.118.54.362 1.224.544 2.047.544 1.4 0 2.42-.216 3.06-.644a4.348 4.348 0 0 0 1.425-1.637 4.64 4.64 0 0 0 .531-2.144c0-1.733-.947-3.215-2.839-4.451v.003ZM77.69 53.57h-19.2a2.42 2.42 0 0 1-2.421-2.42V31.949a2.42 2.42 0 0 1 2.42-2.42h19.2a2.42 2.42 0 0 1 2.421 2.42v19.2a2.42 2.42 0 0 1-2.42 2.42Zm-4.844-7.908a6.543 6.543 0 0 0 .741-3.024c0-1.746-.722-3.347-2.165-4.801-1.23-1.236-2.715-2.15-4.46-2.745-.15-.049-.696-.304-1.64-.765-.835-.413-1.328-.617-1.476-.617-.258 0-.516.14-.775.416-.258.276-.385.54-.385.793 0 .72.015 1.791.042 3.222.028 1.427.043 2.502.043 3.221 0 .644-.03 1.613-.088 2.9a71.408 71.408 0 0 0-.088 2.9c0 .265.088.49.267.675.179.185.4.276.665.276h.091c.35.264.872.48 1.567.644a6.49 6.49 0 0 0 1.54.212c1.782 0 3.149-.325 4.102-.978a6.16 6.16 0 0 0 2.022-2.323l-.003-.006Zm-1.12-2.979a4.6 4.6 0 0 1-.531 2.144 4.348 4.348 0 0 1-1.425 1.637c-.637.431-1.658.644-3.06.644-.824 0-1.507-.182-2.047-.544a1.17 1.17 0 0 0-.195-.118l.15-5.032-.028-2.645-.046-2.654c2.269 1.002 3.714 1.71 4.343 2.12 1.891 1.236 2.839 2.718 2.839 4.451v-.003Z"/>
  <path fill="#0079F2" d="M46.515 41.548a6.173 6.173 0 0 0-6.164-6.165.766.766 0 0 0 0 1.53 4.642 4.642 0 0 1 4.637 4.638.766.766 0 0 0 1.53 0l-.003-.003Z"/>
  <path fill="#A3CEFA" d="m47.234 47.788-1.365 1.366 2.353 2.353 1.366-1.366-2.354-2.353Z"/>
  <path fill="#A3CEFA" d="M40.351 31.171c-5.733 0-10.38 4.647-10.38 10.38 0 5.733 4.647 10.379 10.38 10.379 5.733 0 10.38-4.646 10.38-10.38 0-5.732-4.647-10.379-10.38-10.379Zm0 18.43a8.054 8.054 0 1 1 0-16.11 8.053 8.053 0 0 1 8.053 8.057 8.052 8.052 0 0 1-8.053 8.053Z"/>
  <path fill="#0079F2" d="M58.644 56.916h-.738c-1.336 0-3.283 1.594-3.283 2.93v.44a2.623 2.623 0 0 1-.133-.124l-5.83-5.827a2.66 2.66 0 0 1 1.88-4.537c.68 0 1.36.261 1.879.78l5.827 5.828c.158.155.292.328.401.51h-.003Z"/>
</svg>