<svg xmlns="http://www.w3.org/2000/svg" fill="none" viewBox="0 0 44 83">
  <path fill="#0079F2" d="M34.313 42.8c1.136 1.22 3.137 3.07 4.314 4.577 8.7 11.122 4.573 27.577-8.334 33.18C14.041 87.615-3.16 73.356.497 56.078 2.12 48.395 7.53 44.34 12.734 39.062c.448-.203 1.35.217 1.956.265.868.069 1.682-.046 2.52-.228 3.245-.706 6.742-2.494 10.007-3.337.338-.004 1.454 1.063.917 1.428l-15.915 15.9C4.915 62.3 13.36 75.446 24.87 72.404c5.949-1.572 9.74-7.767 8.682-13.803-1.04-5.941-6.572-8.798-10.037-13.185l6.607-6.588s3.546 3.286 4.186 3.971h.005Z"/>
  <path fill="#EAEAEC" d="M16.836 2.65V0h9.58v7.694l-9.58 3.078V2.651Z"/>
  <path fill="#DBF22E" d="M26.886 23.126c6.044-.83 8.391 6.835 2.01 9.363-3.306 1.309-8.52 3.146-11.928 3.978-6.426 1.568-8.988-6.515-3.208-9.02 4.024-1.743 8.98-2.728 13.126-4.32Z"/>
  <path fill="#A3CEFA" d="M27.395 10.3c5.231-.823 7.617 6.77 2.142 9.15-4.153 1.805-9.24 2.805-13.517 4.44-5.64.546-7.747-6.909-2.354-9.192 4.271-1.807 9.353-2.749 13.73-4.401v.002Z"/>
</svg>