<svg xmlns="http://www.w3.org/2000/svg" fill="none" viewBox="0 0 87 83">
  <path fill="#DBF22E" d="M63.803 13.413c4.677 10.895-.071 23.736-10.754 28.802-1.93.914-4.009 1.404-6.017 2.097-.8.766-2.986 5.496-3.607 5.8-.295.145-.253-.141-.313-.237-.662-1.077-2.646-5.216-3.286-5.75-.36-.301-2.866-.76-3.6-1.013-13.544-4.67-19.358-21.219-11.3-33.262 7.385-11.035 22.75-13.206 32.78-4.435L43.514 19.782h-.545l-5.065-5.088a1.15 1.15 0 0 0-1.313 0l-5.665 5.778c-.303.53.018.842.323 1.241 2.131 2.812 6.502 6.431 9.136 9.122.914.933 2.235 3.434 3.688 2.037l19.267-19.28.461-.18h.002Z"/>
  <path fill="#F1273F" d="m37.063 81.65-.889-1.965c-.475-.865-2.437-3.37-3.442-3.37-.38 0-2.533 1.409-3.102 1.682-5.063 2.417-17.407 6.534-22.317 3.07C2.486 77.66-1.562 63.93.594 58.55c1.284-3.203 6.667-6.263 9.737-7.6 5.18-2.255 16.675-5.677 21.209-1.304 4.063 3.92 8.389 15.724 6.536 21.117-.256.744-1.345 1.996-1.377 2.508-.027.441.685 1.85.833 2.474.5 2.117.3 3.885-.466 5.9l-.003.006ZM17.291 53.118c-2.279.217-5.932 2.073-7.527 3.723-1.867 1.93-1.056 2.526.742 4.068 2.326 1.99 1.754.99 3.605-.458.847-.663 4.075-3.048 4.161-.653.069 1.848-2.358 3.582-2.6 5.903-.1.959.383 4.334 1.57 4.322.367-.003 3.905-1.703 4.058-2.013.434-.892-.387-1.71-.249-2.45.138-.739 1.878-2.818 2.316-3.786 2.01-4.435-1.308-9.107-6.073-8.656h-.003Zm3.694 16.222c-6.352.446-3.11 9.698 2.052 6.123 2.353-1.629.944-6.332-2.052-6.123Z"/>
  <path fill="#A3CEFA" d="m49.79 81.65-.68-1.62c-.427-1.59-.282-3.162.14-4.73.152-.568.756-1.553.727-2.026-.033-.51-1.122-1.764-1.378-2.508-1.85-5.384 2.457-17.247 6.537-21.118 3.082-2.927 8.345-2.23 12.213-1.503 5.435 1.02 17.444 5.3 19.016 11.23 1.448 5.46-2.23 18.326-7.003 21.694-4.915 3.47-17.246-.65-22.317-3.07-.569-.27-2.722-1.682-3.102-1.682-1.279 0-4.22 3.897-4.151 5.336l-.003-.002Zm20.424-28.355c-3.112.532-3.491 3.836-3.92 6.406-.295 1.769-1.025 6.502.091 7.847.693.835 1.52.648 2.311.089 1.693-1.2 5.825-7.727 6.133-9.728.421-2.75-1.791-5.097-4.615-4.614Zm-5.336 15.672c-5.327.29-4.738 8.222.295 8.057 5.206-.173 4.972-8.345-.295-8.057Z"/>
</svg>