<svg xmlns="http://www.w3.org/2000/svg" fill="none" viewBox="0 0 83 83">
  <path fill="#0079F2" d="M77.338 82.403H48.05a4.669 4.669 0 0 1-4.663-4.663V48.452a4.669 4.669 0 0 1 4.663-4.663h29.288a4.669 4.669 0 0 1 4.663 4.663V77.74a4.669 4.669 0 0 1-4.663 4.663ZM48.05 45.729a2.723 2.723 0 0 0-2.72 2.72v29.287c0 1.5 1.221 2.72 2.72 2.72h29.288c1.5 0 2.72-1.22 2.72-2.72V48.45c0-1.5-1.22-2.72-2.72-2.72H48.05Zm-14.1-6.846H4.664A4.669 4.669 0 0 1 0 34.22V4.929A4.669 4.669 0 0 1 4.663.266h7.853a.97.97 0 0 1 .972.971.97.97 0 0 1-.972.972H4.663c-1.5 0-2.72 1.22-2.72 2.72v29.288c0 1.499 1.22 2.72 2.72 2.72h29.288c1.5 0 2.72-1.221 2.72-2.72V4.929c0-1.5-1.22-2.72-2.72-2.72h-8.728a.97.97 0 0 1-.971-.972.97.97 0 0 1 .971-.971h8.728a4.669 4.669 0 0 1 4.663 4.663v29.288a4.669 4.669 0 0 1-4.663 4.663v.003Z"/>
  <path fill="#DBF22E" d="M34.709 82.377h-30.8a3.884 3.884 0 0 1-3.883-3.883v-30.8a3.884 3.884 0 0 1 3.883-3.883h30.8a3.884 3.884 0 0 1 3.882 3.883v30.8a3.884 3.884 0 0 1-3.883 3.883ZM24.077 53.235a7.68 7.68 0 0 0-2.876.557 6.076 6.076 0 0 1 1.36-1.506 1.02 1.02 0 1 0-1.266-1.603 8.08 8.08 0 0 0-2.292 2.86 8.016 8.016 0 0 0-.353.87 7.658 7.658 0 0 0-4.103-1.178c-4.269 0-7.743 3.475-7.743 7.743a7.736 7.736 0 0 0 .87 3.565l3.016 7.48a5.674 5.674 0 0 0 8.627 2.747 5.674 5.674 0 0 0 8.627-2.746l3.014-7.48c.247-.474.44-.962.577-1.448a7.778 7.778 0 0 0 .295-2.118c0-4.268-3.475-7.743-7.743-7.743h-.01Zm54.249-14.087H47.063a3.942 3.942 0 0 1-3.941-3.94V3.94A3.942 3.942 0 0 1 47.062 0h31.264a3.942 3.942 0 0 1 3.94 3.941v31.263a3.942 3.942 0 0 1-3.94 3.941v.003ZM67.532 9.566c-1.02 0-2.004.198-2.92.563a6.197 6.197 0 0 1 1.379-1.528 1.04 1.04 0 0 0 .172-1.457 1.04 1.04 0 0 0-1.458-.172 8.24 8.24 0 0 0-2.328 2.905c-.14.288-.256.583-.36.884a7.792 7.792 0 0 0-4.164-1.198c-4.333 0-7.86 3.526-7.86 7.86a7.865 7.865 0 0 0 .885 3.62l3.06 7.594a5.757 5.757 0 0 0 5.43 3.847c1.212 0 2.361-.37 3.326-1.06a5.757 5.757 0 0 0 8.756-2.788l3.061-7.593c.25-.48.447-.975.586-1.47a7.888 7.888 0 0 0 .298-2.15c0-4.334-3.526-7.86-7.86-7.86l-.003.003Z"/>
</svg>