<svg xmlns="http://www.w3.org/2000/svg" fill="none" viewBox="0 0 83 83">
  <path fill="#DBF22E" d="M42.438 22.686c-4.964 0-9-4.04-9-9 0-4.961 4.04-9 9-9 4.961 0 9 4.039 9 9 0 4.96-4.039 9-9 9Zm0-16.135a7.138 7.138 0 0 0-7.131 7.131 7.138 7.138 0 0 0 7.131 7.132 7.138 7.138 0 0 0 7.132-7.132 7.138 7.138 0 0 0-7.132-7.131Z"/>
  <path fill="#A3CEFA" d="M27.682 82.403a.926.926 0 0 1-.927-.928V39.6a.926.926 0 1 1 1.854 0v41.875a.926.926 0 0 1-.927.928Zm0-46.734a.926.926 0 0 1-.927-.927V.927a.926.926 0 1 1 1.855 0v33.815a.926.926 0 0 1-.928.927Zm27.042 46.734a.926.926 0 0 1-.927-.928V.927a.926.926 0 1 1 1.855 0v80.549a.926.926 0 0 1-.928.927Z"/>
  <path fill="#A3CEFA" d="M81.478 55.648H.93a.926.926 0 0 1-.927-.927c0-.513.414-.927.927-.927h80.548a.926.926 0 1 1 0 1.855Zm0-27.038H66.271a.926.926 0 1 1 0-1.855h15.207a.926.926 0 1 1 0 1.855Zm-19.287 0H.927a.926.926 0 1 1 0-1.855h61.264a.926.926 0 1 1 0 1.854Z"/>
  <path fill="#DBF22E" d="M42.438 50.685c-4.964 0-9-4.039-9-9 0-4.96 4.04-9 9-9 4.961 0 9 4.04 9 9 0 4.961-4.039 9-9 9Zm0-16.131a7.138 7.138 0 0 0-7.131 7.131 7.138 7.138 0 0 0 7.131 7.132 7.138 7.138 0 0 0 7.132-7.132 7.138 7.138 0 0 0-7.132-7.131Zm-29 42.132c-4.964 0-9-4.04-9-9 0-4.961 4.04-9 9-9 4.961 0 9 4.039 9 9 0 4.96-4.039 9-9 9Zm0-16.135a7.138 7.138 0 0 0-7.131 7.131 7.138 7.138 0 0 0 7.131 7.132 7.138 7.138 0 0 0 7.132-7.132 7.138 7.138 0 0 0-7.132-7.131Z"/>
  <path fill="#0079F2" d="m69.965 12.837 5.805-5.805a.927.927 0 0 0-1.31-1.31l-5.805 5.804-5.805-5.805a.927.927 0 0 0-1.31 1.31l5.804 5.806-5.805 5.804a.927.927 0 0 0 1.31 1.31l5.806-5.804 5.804 5.805a.92.92 0 0 0 .655.272.927.927 0 0 0 .655-1.583l-5.804-5.804Zm5.802 21.249a.927.927 0 0 0-1.31 0l-5.805 5.805-5.805-5.805a.927.927 0 0 0-1.31 1.31l5.804 5.805-5.805 5.805a.927.927 0 0 0 1.31 1.31l5.806-5.804 5.804 5.804a.92.92 0 0 0 .656.273.927.927 0 0 0 .655-1.583l-5.805-5.805 5.805-5.804a.927.927 0 0 0 0-1.31Z"/>
</svg>