<svg xmlns="http://www.w3.org/2000/svg" fill="none" viewBox="0 0 99 81">
  <path fill="#DBF22E" d="M33.863 20.944c-.172-.322-.453-.561-.834-.72-2.263-.906-5.175-1.358-8.746-1.35 1.24-1.232 2.13-2.535 2.666-3.905.666-1.702.637-3.231-.097-4.585-1.487-2.757-4.55-4.119-9.19-4.09-1.076.009-2.266.264-3.565.771L10.744 8.55c-.624.276-.972.746-1.056 1.4-.08.536.017 1.056.294 1.563.243.456.65 1.106 1.215 1.948.566.842.968 1.492 1.215 1.949.436.808 1.002 2.07 1.697 3.788.7 1.714 1.27 2.983 1.71 3.8 0 .009.008.013.012.021h3.508l-.26-.435c3.998-.906 8.171-.763 12.517.435.159.042.318.088.478.134.448.126.842.097 1.177-.083l.084-.05c.318-.198.532-.49.65-.88.12-.424.079-.822-.122-1.195Zm-10.518-5.628c-.805 1.216-2.342 2.435-4.61 3.659-.134.07-.335.176-.603.31-.268.13-.46.23-.587.297l-1.156-2.807c-.453-1.12-.876-2.037-1.257-2.75a20.76 20.76 0 0 0-.968-1.566l-1.006-1.543 2.062-.905c1.496-.611 3.155-.78 4.974-.494 1.982.306 3.31 1.081 3.976 2.317.189.348.18.897-.025 1.651a6.635 6.635 0 0 1-.8 1.831Zm36.788-2.443c-.41-3.331-1.55-5.665-3.42-7.006-1.789-1.287-4.337-1.727-7.639-1.316-3.431.427-6.1 2.355-8.012 5.791-1.705 3.097-2.342 6.382-1.91 9.852.125 1.026.377 1.97.762 2.824h3.625c-.72-.876-1.16-1.944-1.316-3.201-.335-2.712.143-5.289 1.442-7.732 1.403-2.66 3.335-4.144 5.79-4.446 2.44-.301 4.229-.05 5.369.755 1.194.842 1.94 2.46 2.237 4.86.34 2.74-.063 5.297-1.202 7.669a9.764 9.764 0 0 1-1.333 2.095h3.725c.076-.13.143-.264.214-.398 1.542-3.026 2.1-6.273 1.668-9.747Zm34.729-2.267c-.536-.23-1.085-.16-1.638.21-.645.44-1.337 1.148-2.07 2.12-.993 1.324-1.596 2.108-1.819 2.342a409.57 409.57 0 0 1-7.408 7.74h3.834l5.858-5.778 1.823-2.163 1.199-1.27c.628-.645.972-1.047 1.039-1.206.398-.93.125-1.597-.818-1.995Zm-11.44-3.214c.013-.775-.31-1.303-.959-1.58-.792-.335-2.045.348-3.754 2.05-.65.645-1.706 1.852-3.169 3.616-2.396 2.891-4.584 5.284-6.558 7.165l1.266-6.746c.461-2.607.775-4.87.943-6.785.163-1.81.23-2.92.205-3.323-.042-.8-.369-1.328-.972-1.588-.98-.415-1.651-.188-2.02.68a1.97 1.97 0 0 0-.138.598c-.369 4.928-.746 8.679-1.119 11.243l-1.387 7.489-.318 1.957c-.13.301-.197.586-.201.85h3.96c.934-1.22 2.4-2.765 4.408-4.63 1.852-1.73 3.847-3.956 5.984-6.671-.486 1.584-1.027 3.73-1.614 6.432-.465 2.12-.825 3.742-1.08 4.87h3.05l.67-3.563c.465-2.334.926-4.3 1.391-5.908.935-3.16 1.408-5.213 1.413-6.156Z"/>
  <path fill="#0079F2" d="M5.108 34.751c-2.514 0-4.387 2.355-3.784 4.794C5.431 56.168 19.113 69.297 36.37 71.933c6.038.922 15.098.913 21.275.553C76.928 71.367 93.103 58.033 97.59 39.57c.595-2.451-1.257-4.819-3.78-4.819H5.108Z"/>
  <path fill="#B8B8B8" d="M67.047 73.806a111.663 111.663 0 0 1-35.195 0c-.155 3.009-.415 6.231 3.164 7.098h28.867c3.57-.863 3.323-4.073 3.164-7.098Z"/>
  <path fill="#A3CEFA" d="M43.538 23.018h10.988c-1.136 1.354-2.552 2.133-4.25 2.343-2.028.251-3.8-.11-5.317-1.086a6.162 6.162 0 0 1-1.42-1.257Zm38.389 0h-1.978l-.461 2.435c.746-.73 1.559-1.542 2.439-2.435Zm12.776 0h-8.942l-2.573 2.54c-.855.942-2.196 2.275-4.023 3.993-.599.482-1.236.578-1.906.293a1.988 1.988 0 0 1-.977-.842c-.251-.44-.293-.863-.117-1.27.05-1.311.168-2.342.356-3.096.08-.306.206-.847.377-1.618h-7.697l-.193.256c.02.26-.013.494-.097.7-.18.419-.51.683-.997.796-.444.105-.88.071-1.307-.113-.918-.39-1.37-.935-1.366-1.639h-6.99c-1.764 3.21-4.295 5.02-7.593 5.427-2.829.352-5.334-.197-7.51-1.651-1.483-.99-2.56-2.25-3.234-3.776H19.339l1.257 2.125 1.488 2.593c.213.39.26.784.15 1.186-.113.398-.36.7-.741.91-.386.205-.776.247-1.17.121a1.545 1.545 0 0 1-.909-.775 85.88 85.88 0 0 0-1.798-3.093 83.368 83.368 0 0 1-1.785-3.067H4.191c-1.157 0-2.205.47-2.963 1.228a4.192 4.192 0 0 0 2.963 7.153h90.512c1.157 0 2.205-.47 2.963-1.228a4.192 4.192 0 0 0-2.963-7.153Z"/>
</svg>